<svg width="246" height="370" viewBox="0 0 246 370" fill="none" xmlns="http://www.w3.org/2000/svg">
<path d="M222 0.5C222 13.4787 231.626 24 243.5 24C244.346 24 245.18 23.9446 246 23.8408V346.158C245.18 346.054 244.346 346 243.5 346C231.626 346 222 356.521 222 369.5C222 369.667 222.003 369.834 222.006 370H23.9941C23.9973 369.834 24 369.667 24 369.5C24 356.521 14.3741 346 2.5 346C1.65433 346 0.820196 346.054 0 346.158V23.8408C0.820235 23.9446 1.65429 24 2.5 24C14.3741 24 24 13.4787 24 0.5C24 0.332913 23.9973 0.166255 23.9941 0H222.006C222.003 0.166255 222 0.332913 222 0.5Z" fill="url(#paint0_linear_364_41)"/>
<defs>
<linearGradient id="paint0_linear_364_41" x1="123" y1="0" x2="123" y2="370" gradientUnits="userSpaceOnUse">
<stop stop-color="#41006C"/>
<stop offset="0.903846" stop-color="#9500F9"/>
</linearGradient>
</defs>
</svg>
