<svg width="34" height="38" viewBox="0 0 34 38" fill="none" xmlns="http://www.w3.org/2000/svg">
<mask id="mask0_1_218" style="mask-type:luminance" maskUnits="userSpaceOnUse" x="0" y="0" width="34" height="38">
<path d="M0.10437 0H33.1044V38H0.10437V0Z" fill="white"/>
</mask>
<g mask="url(#mask0_1_218)">
<path fill-rule="evenodd" clip-rule="evenodd" d="M13.4794 3.68229C12.6148 4.58334 11.9533 6.04167 11.9533 8.20313V10.6771H21.4377V8.20313C21.4377 4.29167 18.9533 2.4375 16.6669 2.38021C15.5002 2.35417 14.344 2.78125 13.4794 3.68229ZM23.8075 10.6771V8.20313C23.8075 3.07813 20.37 0.104168 16.7242 0.0104184C14.9325 -0.0312482 13.12 0.63021 11.7658 2.04167C10.4065 3.46354 9.58354 5.54688 9.58354 8.20313V10.6771H0.10437V32.0104C0.10437 35.2865 2.75541 37.9375 6.02625 37.9375H27.3648C30.6356 37.9375 33.2919 35.2865 33.2919 32.0104V10.6771H23.8075ZM21.4377 13.0469V14.2344H23.8075V13.0469H30.9169V32.0104C30.9169 33.974 29.3283 35.5677 27.3648 35.5677H6.02625C4.0627 35.5677 2.47416 33.974 2.47416 32.0104V13.0469H9.58354V14.2344H11.9533V13.0469H21.4377Z" fill="#C6C6C6"/>
</g>
</svg>
