<svg width="28" height="30" viewBox="0 0 28 30" fill="none" xmlns="http://www.w3.org/2000/svg">
<path d="M19.1353 11.9062C19.0311 13.9479 18.1561 15.9375 16.5155 17.4219C14.8801 18.901 12.8072 19.5729 10.7655 19.4687C8.71862 19.3646 6.72904 18.4896 5.24987 16.8542C3.7707 15.2135 3.09883 13.1458 3.19779 11.099C3.30195 9.05729 4.18216 7.06771 5.81758 5.58854C7.4582 4.10416 9.52591 3.43229 11.5676 3.53646C13.6145 3.64062 15.604 4.51562 17.0832 6.15625C18.5676 7.79167 19.2342 9.85937 19.1353 11.9062ZM27.1665 26.4323L19.9217 18.4167C21.3957 16.5573 22.203 14.3281 22.3176 12.0677C22.4686 9.21875 21.5155 6.29687 19.453 4.01562C17.3905 1.72916 14.578 0.49479 11.729 0.348957C8.88008 0.203123 5.9582 1.15104 3.68216 3.21875C1.3957 5.28125 0.15612 8.08854 0.0154943 10.9375C-0.135547 13.7865 0.817578 16.7083 2.88008 18.9896C4.94779 21.276 7.75508 22.5156 10.604 22.6562C12.8645 22.7708 15.1665 22.1875 17.1613 20.9115L24.4061 28.9271C25.0936 29.6875 26.2707 29.75 27.0363 29.0573C27.7967 28.3698 27.854 27.1927 27.1665 26.4323Z" fill="#C6C6C6"/>
</svg>
