<svg width="43" height="44" viewBox="0 0 43 44" fill="none" xmlns="http://www.w3.org/2000/svg">
<path d="M21.3965 0.989666C9.61003 0.989666 0.00585938 10.5834 0.00585938 22.3855C0.00585938 28.948 2.99023 34.8282 7.6569 38.7501C7.6569 38.7501 7.6569 38.7501 7.6569 38.7657C11.3809 41.8907 16.1777 43.7761 21.3965 43.7761C28.8496 43.7761 35.6413 40.0105 39.5788 33.6876C41.7038 30.2918 42.8184 26.3959 42.8184 22.3855C42.8184 18.3751 41.7038 14.4636 39.5788 11.0834C35.6413 4.7605 28.8496 0.989666 21.3965 0.989666ZM37.1673 32.172C36.485 33.2709 35.6829 34.2449 34.8132 35.1563C32.6413 30.7032 28.0319 27.7345 22.9382 27.7345H19.8861C16.3444 27.7345 13.0215 29.1199 10.5215 31.6147C9.47982 32.6459 8.6569 33.8595 8.01107 35.172C4.82878 31.8438 2.86003 27.349 2.86003 22.3855C2.86003 12.1668 11.1829 3.84383 21.3965 3.84383C27.8652 3.84383 33.7402 7.11467 37.1673 12.5938C38.9954 15.5365 39.9642 18.9168 39.9642 22.3855C39.9642 25.8543 38.9954 29.2345 37.1673 32.172Z" fill="#C6C6C6"/>
<path d="M21.3333 10C17.2969 10 14 13.2813 14 17.3229C14 21.375 17.2969 24.6563 21.3333 24.6563C25.375 24.6563 28.6667 21.375 28.6667 17.3229C28.6667 13.2813 25.375 10 21.3333 10Z" fill="#C6C6C6"/>
</svg>
