<svg width="1813" height="308" viewBox="0 0 1813 308" fill="none" xmlns="http://www.w3.org/2000/svg">
<path d="M110 202.5H46.5L77 39.5H0L10.5 1.5H208.5L172 39.5H137.5L110 202.5Z" fill="white"/>
<path d="M987 203H928L967 1H1024L987 203Z" fill="white"/>
<path d="M1080.5 203H1022L1058 1H1248L1243.5 40H1115L1106 79.5H1214.5C1201 94.3333 1173.5 124 1171.5 124H1096.5L1080.5 203Z" fill="white"/>
<path d="M1243.5 203L1282 1H1341.5L1302 203H1243.5Z" fill="white"/>
<path d="M1341.5 203L1375 1H1563.5V40H1430.5L1423 79.5H1526L1493 124H1413L1406 160H1540V203H1341.5Z" fill="white"/>
<path d="M1795.83 1.05566C1799.61 3.01104 1802.47 4.94301 1804.99 7.91211C1807.5 10.8725 1809.65 14.835 1812.07 20.8125L1812.1 20.9033V63.5127L1812.1 63.5254C1811.35 78.3162 1809.39 85.783 1803.55 97.7197L1803.55 97.7324L1803.54 97.7441C1799.01 105.859 1795.88 110.576 1786.96 119.847L1786.92 119.89L1786.87 119.923C1774.12 127.999 1766.11 130.806 1751.84 134.811L1788.54 202.261L1788.94 203H1713.81L1713.67 202.743L1673.81 131H1641.01L1625.59 202.605L1625.51 203H1563.5L1563.61 202.407L1601.61 1.40723L1601.69 1H1795.73L1795.83 1.05566ZM1658.69 40L1658.61 40.4014L1649.61 84.9014L1649.49 85.5H1741.49L1741.59 85.125C1745.92 68.3894 1746.51 58.5838 1744.1 40.4346L1744.04 40H1658.69Z" fill="white"/>
<path d="M658.833 1.05566C662.611 3.01104 665.471 4.94301 667.991 7.91211C670.504 10.8725 672.654 14.835 675.067 20.8125L675.104 20.9033V63.5127L675.103 63.5254C674.347 78.3162 672.391 85.783 666.553 97.7197L666.547 97.7324L666.54 97.7441C662.006 105.859 658.881 110.576 649.964 119.847L649.922 119.89L649.871 119.923C637.122 127.999 629.114 130.806 614.842 134.811L651.543 202.261L651.944 203H576.81L576.666 202.743L536.809 131H504.008L488.593 202.605L488.508 203H426.5L426.612 202.407L464.612 1.40723L464.689 1H658.726L658.833 1.05566ZM521.694 40L521.613 40.4014L512.613 84.9014L512.492 85.5H604.49L604.588 85.125C608.917 68.3894 609.509 58.5838 607.1 40.4346L607.042 40H521.694Z" fill="white"/>
<path d="M906.833 1.05566C910.611 3.01104 913.471 4.94301 915.991 7.91211C918.504 10.8725 920.654 14.835 923.067 20.8125L923.104 20.9033V63.5127L923.103 63.5254C922.347 78.3162 920.391 85.783 914.553 97.7197L914.547 97.7324L914.54 97.7441C910.006 105.859 906.881 110.576 897.964 119.847L897.922 119.89L897.871 119.923C885.122 127.999 877.114 130.806 862.842 134.811L899.543 202.261L899.944 203H824.81L824.666 202.743L784.809 131H752.008L736.593 202.605L736.508 203H674.5L674.612 202.407L712.612 1.40723L712.689 1H906.726L906.833 1.05566ZM769.694 40L769.613 40.4014L760.613 84.9014L760.492 85.5H852.49L852.588 85.125C856.917 68.3894 857.509 58.5838 855.1 40.4346L855.042 40H769.694Z" fill="white"/>
<path d="M232.5 153.5H185.5V176C192.805 194.53 201.54 201.403 232.5 202H333.5C383.024 202.124 398.317 189.372 406.5 147C406.879 145.036 406.5 128.5 406.5 120.5C404.747 107.906 399.294 104.023 389 97.5C411.369 91.9593 419.2 82.7549 422.5 52.5V38.5C421.385 8.17978 410.24 2.71707 383.5 0.5H263C228.439 5.00043 219.043 16.1127 210.5 43H263C266.523 37.7986 268.907 35.1728 279.5 35H353C363.549 36.8749 369.149 38.2878 369 52.5C368.087 70.5729 364.89 78.0798 349.5 82H254.5L248.5 115.5H333.5C347.499 117.499 353.045 121.28 353 139.5C352.139 154.47 347.515 159.55 333.5 164H244.5C237.223 163.639 234.551 161.404 232.5 153.5Z" fill="#9500F9"/>
<path d="M909.939 241.669C916.332 241.753 922.513 242.822 930.086 244.641L931.62 245.014L931.679 245.028L931.733 245.057C934.968 246.762 937.165 248.259 938.799 250.003C940.234 251.534 941.214 253.233 942.095 255.376L942.468 256.323L942.488 256.379L942.496 256.437C943.616 265.438 943.829 272.185 942.894 278.415C941.958 284.65 939.876 290.337 936.447 297.223L936.433 297.251L936.415 297.277C934.79 299.704 933.341 301.401 931.596 302.671C929.849 303.942 927.838 304.76 925.129 305.482L925.099 305.49L925.066 305.495C908.923 307.679 899.372 307.694 881.439 305.496L881.4 305.491L881.362 305.48C877.016 304.24 874.16 302.996 872.273 301.303C870.361 299.586 869.494 297.455 869.007 294.583L869.001 294.549L869 294.514C868.725 284.883 869.089 278.221 870.098 272.516C871.107 266.807 872.759 262.077 875.035 256.315L875.047 256.285L875.062 256.257C878.055 250.876 881.185 248.734 886.725 245.082L886.794 245.036L886.873 245.016C896.081 242.611 903.118 241.579 909.939 241.669ZM921.808 254.781C913.24 253.731 907.754 253.564 897.928 255.004L897.791 255.024L897.684 255.111C893.939 258.168 891.989 259.999 889.616 263.672C889.263 263.994 888.915 264.496 888.582 265.094C888.223 265.737 887.856 266.535 887.495 267.438C886.773 269.246 886.062 271.508 885.48 273.869C884.899 276.231 884.445 278.706 884.241 280.938C884.039 283.157 884.077 285.192 884.521 286.645L884.528 286.667L884.537 286.688C885.321 288.601 886.041 290.061 886.978 291.403C887.915 292.747 889.058 293.953 890.67 295.374L890.747 295.442L890.846 295.475C896.28 297.234 900.359 297.81 904.279 297.652C908.185 297.495 911.913 296.609 916.616 295.485L916.666 295.474L916.712 295.452C918.979 294.391 920.713 293.43 922.231 292.117C923.752 290.802 925.034 289.155 926.433 286.75L926.461 286.701L926.478 286.645C928.943 278.612 929.765 273.898 929.5 264.984L929.499 264.951L929.493 264.919L929.381 264.276C929.105 262.811 928.721 261.552 927.985 260.23C927.15 258.73 925.878 257.175 923.854 255.145L923.733 255.025L923.564 255.003L921.808 254.781Z" fill="white"/>
<path d="M805.576 246.006C808.166 246.403 810.233 246.861 811.922 248.131C813.514 249.328 814.709 251.196 815.766 254.224L815.976 254.845L815.989 254.887L815.995 254.931C817.136 263.04 817.037 267.193 815.994 274.075L815.986 274.131L815.965 274.184L815.891 274.371C814.607 277.627 813.553 280.329 811.269 282.306C808.974 284.291 805.51 285.49 799.542 285.998L799.521 286H761.931L758.994 305.574L758.931 306H739.888L740.01 305.4L752.01 246.4L752.092 246H805.538L805.576 246.006ZM774.47 255L774.439 255.004C772.171 255.28 770.348 255.572 768.771 256.378C767.172 257.195 765.872 258.515 764.568 260.748L764.515 260.84L764.503 260.946C764.14 264.285 764.047 266.189 764.504 269.553L764.503 269.554C764.752 271.864 765.428 273.381 766.787 274.364C768.102 275.316 769.98 275.703 772.441 275.996L772.471 276H791.526L791.552 275.997C794.374 275.703 796.248 275.157 797.54 274.118C798.845 273.069 799.48 271.583 799.984 269.625L799.993 269.592L799.997 269.559C800.396 266.191 800.296 264.292 799.998 260.956L799.997 260.944L799.996 260.934L799.938 260.529C799.628 258.553 799.057 257.232 798.026 256.377C796.944 255.48 795.446 255.18 793.547 255.002L793.523 255H774.47Z" fill="white"/>
<path d="M1070.28 247.089C1071.45 247.672 1072.37 248.262 1073.19 249.18C1073.99 250.09 1074.67 251.293 1075.42 253.06L1075.46 253.153V265.728L1075.45 265.74C1075.22 270.124 1074.61 272.363 1072.8 275.909L1072.79 275.922L1072.78 275.934C1071.38 278.338 1070.4 279.745 1067.65 282.485L1067.61 282.528L1067.56 282.559C1063.75 284.869 1061.3 285.723 1057.18 286.841L1068.19 306.218L1068.62 306.965H1044.81L1044.66 306.716L1032.56 285.856H1022.99L1018.33 306.574L1018.24 306.965H998.552L998.67 306.368L1010.31 247.44L1010.39 247.037H1070.17L1070.28 247.089ZM1027.85 258.471L1027.76 258.867L1025.01 271.913L1024.88 272.517H1053.75L1053.85 272.147C1055.19 267.193 1055.37 264.269 1054.63 258.902L1054.57 258.471H1027.85Z" fill="white"/>
<path d="M1315.5 262.5H1296.5C1296.37 259.895 1295.65 258.88 1293 258H1271.5C1267.18 258.786 1265.3 259.759 1265.5 265C1265.3 271.372 1266.71 272.995 1271.5 273H1296.5C1303.81 273.174 1307.41 275.24 1308.5 281.5C1308.45 287.224 1308.42 290.001 1308.5 297C1307.73 303.113 1304.78 305.587 1296.5 307H1259.5C1245.05 306.473 1242.69 301.371 1243 288.5H1256C1256.13 294.255 1257.26 296.198 1261.5 297H1291C1295.53 295.36 1296.31 293.198 1296.5 288.5C1296.09 284.769 1294.85 283.593 1291 283H1261.5C1257.49 282.863 1255.3 282.582 1253.5 276C1251.98 267.408 1252.41 262.592 1253.5 254C1255.04 249.077 1256.92 247.72 1261.5 247H1300.5C1310.5 247.561 1313.82 250.904 1315.5 262.5Z" fill="white"/>
<path d="M1145.5 306L1154 257.5H1130.5V247.5H1195.5V257.5H1173L1162.5 306H1145.5Z" fill="white"/>
<path d="M559.5 306.5H501L512.5 246.5H559.5V257.5H527.5L524 272.5H556V282.5H524L520.5 296.5H559.5V306.5Z" fill="white"/>
<path d="M692 262H673C672.872 259.395 672.146 258.38 669.5 257.5H648C643.678 258.286 641.795 259.259 642 264.5C641.798 270.872 643.213 272.495 648 272.5H673C680.315 272.674 683.914 274.74 685 281C684.946 286.724 684.922 289.501 685 296.5C684.233 302.613 681.279 305.087 673 306.5H636C621.547 305.973 619.192 300.871 619.5 288H632.5C632.628 293.755 633.764 295.698 638 296.5H667.5C672.03 294.86 672.807 292.698 673 288C672.586 284.269 671.351 283.093 667.5 282.5H638C633.985 282.363 631.804 282.082 630 275.5C628.482 266.908 628.914 262.092 630 253.5C631.542 248.577 633.42 247.22 638 246.5H677C687.001 247.061 690.322 250.404 692 262Z" fill="white"/>
<path d="M441 267C395.667 269.333 304.4 274 302 274L441 281.5V267Z" fill="#9500F9"/>
<path d="M1371.5 268C1416.83 270.333 1508.1 275 1510.5 275L1371.5 282.5V268Z" fill="#9500F9"/>
</svg>
