<svg width="95" height="151" viewBox="0 0 95 151" fill="none" xmlns="http://www.w3.org/2000/svg">
<mask id="mask0_155_77" style="mask-type:luminance" maskUnits="userSpaceOnUse" x="0" y="0" width="95" height="108">
<path d="M0 0H94.1083V107.145H0V0Z" fill="white"/>
</mask>
<g mask="url(#mask0_155_77)">
<path d="M87.7138 17.5209C83.6609 11.8418 78.0733 7.49206 70.9471 4.50114C63.8546 1.51023 55.6589 0 46.3861 0C37.9427 0 30.2348 1.48069 23.2662 4.44206C16.2938 7.3702 10.6761 11.8713 6.43942 17.8236C3.06206 22.5685 0.97185 28.3103 0.112499 35.0454C-0.255259 37.9772 2.10889 40.573 5.1185 40.573H23.7878C26.182 40.573 28.2084 38.9114 28.73 36.6184C29.1916 34.5617 29.9571 32.7191 31.0341 31.1498C32.7528 28.6094 34.9631 26.6782 37.665 25.3785C40.3669 24.0787 43.2227 23.4141 46.2623 23.4141C49.3957 23.4141 52.2177 24.0492 54.8295 25.3489C57.4076 26.6154 59.464 28.458 60.9988 30.847C62.5374 33.2324 63.303 35.9833 63.303 39.1551C63.303 42.146 62.6275 44.8342 61.2765 47.2232C59.9256 49.6086 58.1131 51.813 55.8427 53.7774C53.5386 55.7713 50.9906 57.6434 48.1048 59.4897C44.2359 61.875 40.9185 64.5336 38.1866 67.4654C35.4247 70.3936 33.3645 74.2301 31.9235 79.0045C30.5125 83.7788 29.7732 90.1521 29.7432 98.1611V102.149C29.7432 104.867 31.9835 107.104 34.7793 107.104H51.2045C53.9702 107.104 56.2405 104.896 56.2405 102.149V98.1611C56.3043 93.6599 56.886 89.8825 58.023 86.8288C59.1563 83.7788 60.9088 81.0612 63.2429 78.7349C65.6071 76.4086 68.6167 74.171 72.298 71.9961C76.6923 69.4261 80.4675 66.5571 83.691 63.3557C86.8845 60.1838 89.4025 56.4987 91.215 52.3595C92.9937 48.2202 93.9169 43.4458 93.9169 38.0991C93.8231 30.0605 91.7666 23.2036 87.7138 17.5209Z" fill="white"/>
</g>
<mask id="mask1_155_77" style="mask-type:luminance" maskUnits="userSpaceOnUse" x="25" y="117" width="36" height="35">
<path d="M25.9385 117.543H60.5227V151.008H25.9385V117.543Z" fill="white"/>
</mask>
<g mask="url(#mask1_155_77)">
<path d="M43.5008 118.222C38.8325 118.222 34.8697 119.821 31.5862 123.026C28.2989 126.227 26.674 130.093 26.734 134.565C26.674 139.099 28.2989 142.995 31.5862 146.229C34.8697 149.46 38.8325 151.063 43.5008 151.063C46.4766 151.063 49.2423 150.306 51.7265 148.825C54.2445 147.315 56.2709 145.351 57.8395 142.843C59.4044 140.336 60.2037 137.589 60.2337 134.565C60.1737 130.064 58.4812 126.227 55.1376 123.026C51.8203 119.821 47.9213 118.222 43.5008 118.222Z" fill="white"/>
</g>
</svg>
